<svg width="30" height="40" viewBox="0 0 30 40" fill="none" xmlns="http://www.w3.org/2000/svg">
<g id="Group">
<path id="Vector" d="M28.4685 8.56494L28.9521 9.08047C29.2672 9.41634 29.3242 9.82917 29.3242 10.3464V27.0775V38.135V38.4446C29.3242 38.756 29.1777 39.0555 28.9555 39.2964C28.7329 39.5378 28.4285 39.7272 28.0979 39.8182M28.4685 8.56494L28.0714 39.7217M28.4685 8.56494L22.1369 1.81488L21.6534 1.29935C21.4163 1.04662 21.0867 0.9 20.7475 0.9H2.5448C2.14534 0.9 1.73215 1.06453 1.41961 1.40681C1.10664 1.74957 0.9 2.26424 0.9 2.95648V27.0775V38.135V38.4446C0.9 38.756 1.04643 39.0555 1.26863 39.2964C1.49123 39.5378 1.79563 39.7272 2.12628 39.8182M28.4685 8.56494L2.1528 39.7217M28.0979 39.8182L28.0714 39.7217M28.0979 39.8182C28.0979 39.8181 28.098 39.8181 28.0981 39.8181L28.0714 39.7217M28.0979 39.8182C28.0853 39.8217 28.0737 39.8257 28.056 39.8315C28.0398 39.8369 28.0198 39.8432 27.9977 39.8477C27.8937 39.8697 27.7871 39.8819 27.6793 39.8819H2.5448C2.4369 39.8819 2.33021 39.8697 2.22615 39.8477M28.0714 39.7217C28.059 39.7252 28.0469 39.7292 28.0348 39.7332C28.016 39.7395 27.9971 39.7458 27.9773 39.7498C27.8794 39.7706 27.7797 39.7819 27.6793 39.7819H2.5448C2.44445 39.7819 2.34472 39.7706 2.24688 39.7498M2.22615 39.8477C2.22637 39.8477 2.22658 39.8477 2.22679 39.8478L2.24688 39.7498M2.22615 39.8477L2.24688 39.7498M2.22615 39.8477C2.2042 39.8431 2.18425 39.8368 2.16817 39.8315C2.1639 39.8301 2.16 39.8288 2.15634 39.8276C2.14483 39.8238 2.13585 39.8208 2.12628 39.8182M2.24688 39.7498C2.22707 39.7458 2.20818 39.7395 2.18938 39.7332C2.17723 39.7292 2.16511 39.7252 2.1528 39.7217M2.1528 39.7217L2.12628 39.8182M2.1528 39.7217L2.12609 39.8181C2.12615 39.8181 2.12621 39.8181 2.12628 39.8182M27.7245 10.4612C27.7748 10.4612 27.8232 10.456 27.8697 10.4479V26.9775H2.35441V2.95648C2.35441 2.88633 2.35966 2.74281 2.39465 2.61985C2.4122 2.55818 2.43503 2.50983 2.46171 2.47857C2.48586 2.45027 2.51135 2.43731 2.5448 2.43731H20.357C20.3486 2.48915 20.3433 2.54306 20.3433 2.59875V10.3612V10.4612H20.4433H27.7245ZM21.7977 3.63653L26.7573 8.92385H21.7977V3.63653ZM2.5448 38.3446C2.52404 38.3446 2.50441 38.3372 2.46189 38.3206C2.39962 38.2873 2.35441 38.2186 2.35441 38.135V28.5148H27.8697V38.135C27.8697 38.2182 27.8249 38.2866 27.762 38.3207C27.7197 38.3372 27.7001 38.3446 27.6793 38.3446H2.5448Z" fill="white" stroke="white" stroke-width="0.2"/>
<path id="Vector_2" d="M9.86058 31.3342L9.81226 31.4217C9.96041 31.5035 10.072 31.603 10.151 31.7192C10.2325 31.84 10.2852 31.9648 10.3113 32.0939C10.3387 32.2326 10.352 32.3522 10.352 32.4535C10.352 32.7213 10.3214 32.9397 10.2632 33.1121C10.2031 33.2885 10.1276 33.418 10.0386 33.5076C9.94471 33.6022 9.84387 33.6685 9.7362 33.7083C9.62359 33.7499 9.5105 33.7709 9.3977 33.7709H8.55439V31.3018H9.22585C9.47864 31.3018 9.67162 31.3444 9.81241 31.4218L9.86058 31.3342ZM9.86058 31.3342C9.70002 31.2459 9.48865 31.2018 9.22585 31.2018H8.55439L10.4094 32.0743C10.3805 31.9312 10.3222 31.7942 10.2338 31.6631C10.1447 31.5321 10.0205 31.4224 9.86058 31.3342ZM10.814 30.8431L10.8139 30.843C10.5955 30.6521 10.3485 30.5078 10.0734 30.4126C9.80035 30.3174 9.52334 30.27 9.24341 30.27H7.42578H7.32578V30.37V37.1071V37.2071H7.42578H8.45502H8.55502V37.1071V34.7753H9.21832C9.5599 34.7753 9.87565 34.7222 10.1625 34.6137C10.4483 34.5056 10.6948 34.3522 10.8999 34.1534C11.1056 33.9538 11.2643 33.708 11.378 33.4188L11.3781 33.4186C11.4917 33.128 11.548 32.8065 11.548 32.4541C11.548 32.1175 11.4806 31.8112 11.3444 31.5365C11.2102 31.2656 11.0329 31.0351 10.814 30.8431Z" fill="white" stroke="white" stroke-width="0.2"/>
<path id="Vector_3" d="M17.0396 31.2904L17.0395 31.2903C16.7633 30.9806 16.417 30.7325 16.0019 30.5481C15.5836 30.3622 15.1021 30.27 14.5595 30.27H12.6559H12.5559V30.37V37.1071V37.2071H12.6559H15.0481C15.1345 37.2071 15.2628 37.1957 15.4297 37.1742L15.4297 37.1742C15.6046 37.1516 15.7955 37.1011 16.0013 37.022C16.2109 36.9422 16.4253 36.8234 16.6452 36.6671C16.8719 36.506 17.0728 36.2874 17.2501 36.0134C17.4287 35.7375 17.5734 35.3988 17.687 34.9988C17.8019 34.5943 17.8583 34.1105 17.8583 33.55C17.8583 33.1364 17.7906 32.7335 17.6559 32.3426L17.6558 32.3423C17.5192 31.9504 17.3144 31.5993 17.0396 31.2904ZM16.1309 35.5348L16.1308 35.5349C15.8451 35.9751 15.3782 36.2021 14.7057 36.2021H13.7852V31.3011H14.2854C14.769 31.3011 15.1539 31.369 15.4453 31.4984C15.742 31.6302 15.973 31.8012 16.1413 32.0095C16.3119 32.2205 16.4262 32.4547 16.4861 32.7139C16.5471 32.9807 16.5776 33.2507 16.5776 33.5233C16.5776 34.4164 16.4244 35.0833 16.1309 35.5348Z" fill="white" stroke="white" stroke-width="0.2"/>
<path id="Vector_4" d="M19.1504 37.1071V37.2071H19.2504H20.2965H20.3965V37.1071V34.1722H22.9377H23.0377V34.0722V33.3227V33.2227H22.9377H20.3965V31.3018H23.203H23.303V31.2018V30.37V30.27H23.203H19.2504H19.1504V30.37V37.1071Z" fill="white" stroke="white" stroke-width="0.2"/>
<path id="Vector_5" d="M15.9619 6.98779L15.966 6.99343C16.1531 7.24729 16.5603 7.80003 15.7279 11.536C16.5734 13.3975 17.7714 15.2938 18.9191 16.5923C19.7414 16.4332 20.4489 16.3529 21.0253 16.3529C22.0075 16.3529 22.6027 16.5977 22.8442 17.0985M15.9619 6.98779L14.6134 11.6557C14.0784 13.9244 13.1809 16.6398 12.2375 18.8437C9.86045 20.0045 8.59789 21.1445 8.48373 22.2324C8.44234 22.6282 8.53015 23.2093 9.18307 23.7315C9.36182 23.8739 9.57131 23.9495 9.78957 23.9495C10.3384 23.9495 10.8928 23.5015 11.5345 22.5407M15.9619 6.98779C15.9421 6.96093 15.9215 6.93239 15.9001 6.90277C15.7087 6.63754 15.4553 6.28638 15.171 6.28638C15.0386 6.28638 14.6774 6.35057 14.5337 6.40139L15.9619 6.98779ZM22.8442 17.0985C23.0455 17.5151 22.9627 18.0005 22.5996 18.5428M22.8442 17.0985L22.9342 17.055C22.9342 17.055 22.9342 17.055 22.9343 17.0551M22.8442 17.0985L22.9343 17.0551M22.5996 18.5428C22.2509 19.0637 21.7692 19.3391 21.2072 19.3391C20.4445 19.3391 19.557 18.8256 18.566 17.8113M22.5996 18.5428L22.6827 18.5984M22.5996 18.5428L22.6827 18.5984C22.6827 18.5984 22.6827 18.5984 22.6827 18.5984M18.566 17.8113C16.7867 18.2078 14.7087 18.9152 13.0291 19.6982M18.566 17.8113L18.4945 17.8812C18.5076 17.8945 18.5206 17.9078 18.5336 17.921M18.566 17.8113L18.5878 17.9089C18.5698 17.9129 18.5517 17.9169 18.5336 17.921M13.0291 19.6982C12.5047 20.8844 12.0023 21.8399 11.5345 22.5407M13.0291 19.6982L13.0713 19.7888C13.0826 19.7836 13.094 19.7783 13.1053 19.773M13.0291 19.6982L13.1205 19.7386C13.1155 19.7501 13.1104 19.7616 13.1053 19.773M11.5345 22.5407L11.6176 22.5962C11.2941 23.0807 10.9886 23.4421 10.69 23.6832C10.3906 23.925 10.0933 24.0495 9.78957 24.0495C9.54742 24.0495 9.31621 23.9655 9.12075 23.8097L9.12061 23.8096C8.43716 23.263 8.3399 22.6464 8.38428 22.222L8.38428 22.222C8.44503 21.643 8.80933 21.0651 9.44502 20.4911C10.0758 19.9217 10.9836 19.3472 12.1602 18.7702C13.0915 16.588 13.9767 13.9095 14.5085 11.6648M11.5345 22.5407L11.6176 22.5962C12.0854 21.8957 12.5852 20.9462 13.1053 19.773M14.5085 11.6648L18.9565 16.4833C19.7586 16.3306 20.4537 16.2529 21.0253 16.2529C22.0153 16.2529 22.666 16.4988 22.9343 17.0551M14.5085 11.6648C14.1987 10.9429 13.8937 10.1145 13.7193 9.32619C13.5433 8.5306 13.4963 7.75823 13.7297 7.17656L13.7297 7.17652C13.8885 6.78134 14.0976 6.45026 14.5003 6.30716L14.5004 6.30711C14.5803 6.27885 14.7132 6.24896 14.8389 6.2264C14.964 6.20394 15.0951 6.18638 15.171 6.18638C15.3736 6.18638 15.5476 6.32336 15.6839 6.46825C15.7957 6.58694 15.898 6.72876 15.9831 6.84684C16.0039 6.87571 16.0237 6.90316 16.0424 6.9285L16.0424 6.92852C16.0438 6.93046 16.0453 6.93242 16.0468 6.9344C16.0939 6.99841 16.1597 7.08766 16.2153 7.24114C16.272 7.3976 16.3168 7.61623 16.3287 7.94107C16.3522 8.5853 16.2467 9.66058 15.8328 11.525L14.5085 11.6648ZM13.1053 19.773C14.7554 19.0073 16.7855 18.3154 18.5336 17.921M18.5336 17.921C19.5136 18.9139 20.4127 19.4391 21.2072 19.4391C21.8068 19.4391 22.3179 19.1433 22.6827 18.5984M22.6827 18.5984C23.0564 18.0403 23.157 17.5159 22.9343 17.0551M10.0788 21.6728C10.3313 21.418 10.6982 21.1233 11.2022 20.7999C10.7776 21.5975 10.4469 22.0685 10.2091 22.3454C10.0153 22.5711 9.88548 22.6652 9.81947 22.703C9.71539 22.6096 9.6692 22.5358 9.64845 22.4847C9.62617 22.4298 9.62991 22.3936 9.6324 22.3695L9.6325 22.3685C9.63251 22.3685 9.63251 22.3685 9.63251 22.3684C9.6483 22.2179 9.77364 21.9808 10.0788 21.6728ZM14.8925 7.74897C14.9125 7.71116 14.9317 7.67853 14.9487 7.65168C14.9539 7.6598 14.9593 7.66854 14.9648 7.67789C15.0133 7.76035 15.0719 7.88759 15.1126 8.05846C15.1873 8.37281 15.2022 8.83912 14.9755 9.45129C14.6561 9.02948 14.6394 8.58698 14.7159 8.23268C14.7581 8.0368 14.8288 7.86882 14.8925 7.74897ZM13.828 18.0289C14.4026 16.5463 14.9368 14.9362 15.3568 13.4221C16.0117 14.6457 16.7776 15.8267 17.5492 16.8003C16.3237 17.1149 15.0332 17.5413 13.828 18.0289ZM21.6585 17.8338C21.581 17.9494 21.4548 18.0136 21.3199 18.0481C21.1855 18.0826 21.0546 18.0844 20.9826 18.0844C20.844 18.0844 20.7501 18.0432 20.6248 17.9468C20.5604 17.8971 20.49 17.8346 20.4014 17.756L20.399 17.7539C20.3545 17.7144 20.3061 17.6715 20.2526 17.6251C20.5834 17.5907 20.8921 17.581 21.1482 17.581C21.4227 17.581 21.5782 17.6026 21.6716 17.627C21.7099 17.637 21.7378 17.6474 21.7605 17.6578C21.7404 17.7007 21.7086 17.7588 21.6585 17.8338Z" fill="white" stroke="white" stroke-width="0.2"/>
</g>
</svg>
