<svg width="60" height="56" viewBox="0 0 60 56" fill="none" xmlns="http://www.w3.org/2000/svg">
<path d="M29.429 35.2731C32.0727 35.2731 37.4437 33.6033 37.7776 26.9244" stroke="#AFAFAF" stroke-width="2.1" stroke-linecap="round"/>
<path d="M29.2202 40.0734C33.4502 40.0734 42.0437 37.4019 42.578 26.7156" stroke="#AFAFAF" stroke-width="2.1" stroke-linecap="round"/>
<path d="M29.6776 19.6594C27.0338 19.6594 21.6629 21.3291 21.3289 28.008" stroke="#AFAFAF" stroke-width="2.1" stroke-linecap="round"/>
<path d="M29.8863 14.8589C25.6563 14.8589 17.0628 17.5305 16.5285 28.2167" stroke="#AFAFAF" stroke-width="2.1" stroke-linecap="round"/>
<circle cx="29.6376" cy="27.9679" r="2.70688" stroke="#AFAFAF" stroke-width="2.1"/>
<path d="M43.8303 8.76605L50.9266 20.8716" stroke="#AFAFAF" stroke-width="2.1" stroke-linecap="round"/>
<circle cx="42.1606" cy="6.26146" r="2.70688" stroke="#AFAFAF" stroke-width="2.1"/>
<path d="M53.0611 30.3716L46.1256 42.5699" stroke="#AFAFAF" stroke-width="2.1" stroke-linecap="round"/>
<circle cx="54.396" cy="27.6733" r="2.70688" transform="rotate(60 54.396 27.6733)" stroke="#AFAFAF" stroke-width="2.1"/>
<path d="M39.0771 49.4656L25.0453 49.5585" stroke="#AFAFAF" stroke-width="2.1" stroke-linecap="round"/>
<circle cx="42.0818" cy="49.2718" r="2.70688" transform="rotate(120 42.0818 49.2718)" stroke="#AFAFAF" stroke-width="2.1"/>
<path d="M15.445 46.3349L8.34863 34.2294" stroke="#AFAFAF" stroke-width="2.1" stroke-linecap="round"/>
<circle cx="17.1147" cy="48.8394" r="2.70688" transform="rotate(-180 17.1147 48.8394)" stroke="#AFAFAF" stroke-width="2.1"/>
<path d="M6.46611 24.7213L13.4016 12.523" stroke="#AFAFAF" stroke-width="2.1" stroke-linecap="round"/>
<circle cx="5.132" cy="27.4196" r="2.70688" transform="rotate(-120 5.132 27.4196)" stroke="#AFAFAF" stroke-width="2.1"/>
<path d="M20.6588 6.14563L34.6906 6.05278" stroke="#AFAFAF" stroke-width="2.1" stroke-linecap="round"/>
<circle cx="17.6549" cy="6.3393" r="2.70688" transform="rotate(-60 17.6549 6.3393)" stroke="#AFAFAF" stroke-width="2.1"/>
</svg>
